<svg width="50" height="50" viewBox="0 0 50 50" fill="none" xmlns="http://www.w3.org/2000/svg">
<path d="M7.90625 1.96875C7.86328 1.97656 7.82031 1.98828 7.78125 2C7.31641 2.10547 6.98828 2.52344 7 3V10H5C3.35547 10 2 11.3555 2 13V15C2 16.6445 3.35547 18 5 18H11C12.6445 18 14 16.6445 14 15V13C14 11.3555 12.6445 10 11 10H9V3C9.01172 2.71094 8.89453 2.43359 8.6875 2.23828C8.47656 2.03906 8.19141 1.94141 7.90625 1.96875ZM24.9062 1.96875C24.8633 1.97656 24.8203 1.98828 24.7812 2C24.3164 2.10547 23.9883 2.52344 24 3V31H22C20.3555 31 19 32.3555 19 34V36C19 37.6445 20.3555 39 22 39H28C29.6445 39 31 37.6445 31 36V34C31 32.3555 29.6445 31 28 31H26V3C26.0117 2.71094 25.8945 2.43359 25.6875 2.23828C25.4766 2.03906 25.1914 1.94141 24.9062 1.96875ZM41.9062 1.96875C41.8633 1.97656 41.8203 1.98828 41.7812 2C41.3164 2.10547 40.9883 2.52344 41 3V13H39C37.3555 13 36 14.3555 36 16V18C36 19.6445 37.3555 21 39 21H45C46.6445 21 48 19.6445 48 18V16C48 14.3555 46.6445 13 45 13H43V3C43.0117 2.71094 42.8945 2.43359 42.6875 2.23828C42.4766 2.03906 42.1914 1.94141 41.9062 1.96875ZM5 12H11C11.5664 12 12 12.4336 12 13V15C12 15.5664 11.5664 16 11 16H5C4.43359 16 4 15.5664 4 15V13C4 12.4336 4.43359 12 5 12ZM39 15H45C45.5664 15 46 15.4336 46 16V18C46 18.5664 45.5664 19 45 19H39C38.4336 19 38 18.5664 38 18V16C38 15.4336 38.4336 15 39 15ZM7 19V25.8125C6.99219 25.875 6.99219 25.9375 7 26V47C6.99609 47.3594 7.18359 47.6953 7.49609 47.8789C7.80859 48.0586 8.19141 48.0586 8.50391 47.8789C8.81641 47.6953 9.00391 47.3594 9 47V26C9.00781 25.9375 9.00781 25.875 9 25.8125V19H7ZM41 22V28.8125C40.9922 28.875 40.9922 28.9375 41 29V47C40.9961 47.3594 41.1836 47.6953 41.4961 47.8789C41.8086 48.0586 42.1914 48.0586 42.5039 47.8789C42.8164 47.6953 43.0039 47.3594 43 47V29C43.0078 28.9375 43.0078 28.875 43 28.8125V22H41ZM22 33H28C28.5664 33 29 33.4336 29 34V36C29 36.5664 28.5664 37 28 37H22C21.4336 37 21 36.5664 21 36V34C21 33.4336 21.4336 33 22 33ZM24 40V41.8125C23.9922 41.875 23.9922 41.9375 24 42V47C23.9961 47.3594 24.1836 47.6953 24.4961 47.8789C24.8086 48.0586 25.1914 48.0586 25.5039 47.8789C25.8164 47.6953 26.0039 47.3594 26 47V42C26.0078 41.9375 26.0078 41.875 26 41.8125V40H24Z" fill="#5FCF6C"/>
</svg>
